<?xml version="1.0" encoding="iso-8859-1"?>
<!-- Uploaded to: SVG Repo, www.svgrepo.com, Generator: SVG Repo Mixer Tools -->
<!DOCTYPE svg PUBLIC "-//W3C//DTD SVG 1.1//EN" "http://www.w3.org/Graphics/SVG/1.1/DTD/svg11.dtd">
<svg fill="#000000" version="1.1" id="Capa_1" xmlns="http://www.w3.org/2000/svg"
     width="35px" height="35px"
     xml:space="preserve">
<g>
	<g>
		<path d="M10.855 30.867c2.451 0 4.708-.827 6.526-2.202 1.819 1.376 4.075 2.202 6.526 2.202 5.986 0 10.855-4.869 10.855-10.855 0-5.986-4.869-10.855-10.855-10.855-2.451 0-4.708.827-6.526 2.202-1.819-1.376-4.075-2.202-6.526-2.202C4.869 9.157 0 14.026 0 20.013 0 25.998 4.869 30.867 10.855 30.867zM17.382 15.626c.846 1.254 1.34 2.764 1.34 4.386s-.494 3.132-1.34 4.386c-.846-1.254-1.34-2.764-1.34-4.386S16.537 16.88 17.382 15.626zM23.909 12.146c4.338 0 7.867 3.529 7.867 7.867 0 4.338-3.529 7.866-7.867 7.866-1.627 0-3.14-.497-4.396-1.346 1.373-1.818 2.198-4.072 2.198-6.52s-.825-4.703-2.198-6.521C20.769 12.642 22.282 12.146 23.909 12.146zM10.855 12.146c1.627 0 3.14.497 4.396 1.346-1.373 1.818-2.198 4.072-2.198 6.521s.825 4.702 2.198 6.52c-1.256.849-2.769 1.346-4.396 1.346-4.338 0-7.867-3.529-7.867-7.866C2.988 15.675 6.517 12.146 10.855 12.146z"/>
	</g>
</g>
</svg>